<svg width="56px" height="31px" viewBox="0 0 56 31" version="1.1" xmlns="http://www.w3.org/2000/svg" xmlns:xlink="http://www.w3.org/1999/xlink">
  <defs>
    <path d="M17.5209195,24.6932222 L22.1064828,22.8669778 L26.9469425,28.6426222 L18.6525057,25.9352889 L17.5209195,24.6932222 L17.5209195,24.6932222 Z M33.8896552,22.8669778 L38.4790805,24.6946 L37.3577931,25.9304667 L29.0537011,28.6426222 L33.8902989,22.8669778 L33.8896552,22.8669778 Z M25.7175172,12.2580889 L26.321931,12.2594667 L27.5011494,16.1964667 L27.5011494,27.9351333 L22.7327816,22.2297556 L25.7175172,12.2587778 L25.7175172,12.2580889 Z M29.586023,12.2608444 L30.2297011,12.2587778 L33.2678621,22.2208 L28.3881379,27.9351333 L28.3881379,16.1930222 L29.5866667,12.2608444 L29.586023,12.2608444 Z M48.8667586,15.8782 L49.3462989,20.0756 L46.4175632,30.0576 L43.7128276,23.87 L39.0332874,25.3952 L47.8735632,15.6770444 L48.8667586,15.8782 L48.8667586,15.8782 Z M36.3723218,11.4045556 L29.829977,11.4334889 L30.7208276,8.47126667 L32.499954,6.48313333 L36.3723218,11.4045556 Z M48.5655172,12.9834889 L48.792092,14.9695556 L41.5841839,13.5070444 L45.9534713,8.95831111 L48.5655172,12.9834889 L48.5655172,12.9834889 Z M29.829977,29.3680222 L43.2789885,24.9887556 L45.9090575,31 L29.829977,29.3680222 L29.829977,29.3680222 Z M48.792092,7.75068889 L56,5.53935556 L49.9642299,18.0351111 L48.792092,7.75 L48.792092,7.75068889 Z M8.12450575,15.6770444 L16.966069,25.3972667 L12.2891034,23.87 L9.58243678,30.0569111 L6.65370115,20.0749111 L7.1325977,15.8782 L8.12514943,15.6770444 L8.12450575,15.6770444 Z M26.0593103,11.4334889 L19.6276782,11.4052444 L23.464,6.48313333 L25.1504368,8.38653333 L26.0593103,11.4334889 L26.0593103,11.4334889 Z M7.31862069,14.9695556 L7.54583908,12.9834889 L10.1578851,8.95831111 L14.5265287,13.5070444 L7.31862069,14.9695556 Z M10.0909425,31 L12.728092,24.9887556 L26.170023,29.3680222 L10.0909425,31 Z M6.03577011,18.0344222 L0,5.54004444 L7.20790805,7.75137778 L6.03577011,18.0344222 L6.03577011,18.0344222 Z M27.9987126,0 L31.2711724,3.82402222 L27.9987126,14.7339556 L24.7288276,3.82402222 L27.9987126,0 Z" id="path-1"></path>
  </defs>
  <g id="Page-1" stroke="none" stroke-width="1" fill="none" fill-rule="evenodd">
    <g id="Desktop-HD-Copy" transform="translate(-171.000000, -1745.000000)">
      <g id="qhacksCrown-white" transform="translate(171.000000, 1745.000000)">
        <g id="a-link" fill="#FFFFFF" fill-rule="nonzero">
          <path d="M17.5209195,24.6932222 L22.1064828,22.8669778 L26.9469425,28.6426222 L18.6525057,25.9352889 L17.5209195,24.6932222 L17.5209195,24.6932222 Z M33.8896552,22.8669778 L38.4790805,24.6946 L37.3577931,25.9304667 L29.0537011,28.6426222 L33.8902989,22.8669778 L33.8896552,22.8669778 Z M25.7175172,12.2580889 L26.321931,12.2594667 L27.5011494,16.1964667 L27.5011494,27.9351333 L22.7327816,22.2297556 L25.7175172,12.2587778 L25.7175172,12.2580889 Z M29.586023,12.2608444 L30.2297011,12.2587778 L33.2678621,22.2208 L28.3881379,27.9351333 L28.3881379,16.1930222 L29.5866667,12.2608444 L29.586023,12.2608444 Z M48.8667586,15.8782 L49.3462989,20.0756 L46.4175632,30.0576 L43.7128276,23.87 L39.0332874,25.3952 L47.8735632,15.6770444 L48.8667586,15.8782 L48.8667586,15.8782 Z M36.3723218,11.4045556 L29.829977,11.4334889 L30.7208276,8.47126667 L32.499954,6.48313333 L36.3723218,11.4045556 Z M48.5655172,12.9834889 L48.792092,14.9695556 L41.5841839,13.5070444 L45.9534713,8.95831111 L48.5655172,12.9834889 L48.5655172,12.9834889 Z M29.829977,29.3680222 L43.2789885,24.9887556 L45.9090575,31 L29.829977,29.3680222 L29.829977,29.3680222 Z M48.792092,7.75068889 L56,5.53935556 L49.9642299,18.0351111 L48.792092,7.75 L48.792092,7.75068889 Z M8.12450575,15.6770444 L16.966069,25.3972667 L12.2891034,23.87 L9.58243678,30.0569111 L6.65370115,20.0749111 L7.1325977,15.8782 L8.12514943,15.6770444 L8.12450575,15.6770444 Z M26.0593103,11.4334889 L19.6276782,11.4052444 L23.464,6.48313333 L25.1504368,8.38653333 L26.0593103,11.4334889 L26.0593103,11.4334889 Z M7.31862069,14.9695556 L7.54583908,12.9834889 L10.1578851,8.95831111 L14.5265287,13.5070444 L7.31862069,14.9695556 Z M10.0909425,31 L12.728092,24.9887556 L26.170023,29.3680222 L10.0909425,31 Z M6.03577011,18.0344222 L0,5.54004444 L7.20790805,7.75137778 L6.03577011,18.0344222 L6.03577011,18.0344222 Z M27.9987126,0 L31.2711724,3.82402222 L27.9987126,14.7339556 L24.7288276,3.82402222 L27.9987126,0 Z" id="a"></path>
        </g>
        <g id="Clipped">
          <mask id="mask-2" fill="white">
            <use xlink:href="#path-1"></use>
          </mask>
          <g id="a"></g>
          <g id="Group" mask="url(#mask-2)" fill="#FFFFFF" fill-rule="nonzero">
            <polygon id="Path" points="0 0 56 0 56 31 0 31"></polygon>
          </g>
        </g>
      </g>
    </g>
  </g>
</svg>