<svg width="80" height="80" fill="none" xmlns="http://www.w3.org/2000/svg">
    <style>
        @supports (color:oklch(0% 0 0)){@media (color-gamut:p3){.purple{fill:oklch(64.8% .323 319)}.violet{fill:oklch(56.5% .301 298.93)}}}
    </style>
<path fill-rule="evenodd" clip-rule="evenodd" d="M34 9.003s-18.755 9.41-20 10c-4 2-6 4-6 9v24c0 5 2 7.01 6 9.01l20 9.99c4 2 8 2 12 0 4.004-1.999 18-9 20-10 4-2 6-4 6-9v-24c0-5.048-1.996-7.01-6-9l-20-10c-4-2-8-2-12 0Z" fill="#9013FE" class="violet"/>
<path d="m31.822 5.903 1.428-.715A16.872 16.872 0 0 1 36 4.095c-.014 2.907-.654 4.492-2.336 7.015C32.363 13.063 32 13.971 32 16.003c0 2.032.364 2.94 1.664 4.89C35.363 23.442 36 25.034 36 28.003c0 2.968-.636 4.56-2.336 7.11C32.363 37.064 32 37.972 32 40.003c0 2.032.364 2.94 1.664 4.89C35.363 47.442 36 49.034 36 52.003c0 2.968-.636 4.56-2.336 7.111C32.363 61.067 32 61.975 32 64.007c0 2.031.363 2.938 1.664 4.888 1.681 2.522 2.323 4.106 2.336 7.016a16.878 16.878 0 0 1-2.75-1.093l-1.427-.711c-.218-.945-.666-1.76-1.487-2.992C28.637 68.568 28 66.976 28 64.006c0-2.968.636-4.56 2.336-7.11C31.637 54.943 32 54.035 32 52.003c0-2.032-.364-2.94-1.664-4.89C28.637 44.564 28 42.972 28 40.003c0-2.968.636-4.56 2.336-7.11C31.637 30.942 32 30.034 32 28.003c0-2.032-.364-2.94-1.664-4.89C28.637 20.564 28 18.972 28 16.003c0-2.968.636-4.56 2.336-7.111.82-1.23 1.267-2.046 1.486-2.989ZM20.902 11.366l6.4-3.2c-.372.928-.907 1.847-1.638 2.944C24.363 13.063 24 13.971 24 16.003c0 2.032.364 2.94 1.664 4.89C27.363 23.442 28 25.034 28 28.003c0 2.968-.636 4.56-2.336 7.11C24.363 37.064 24 37.972 24 40.003c0 2.032.364 2.94 1.664 4.89C27.363 47.442 28 49.034 28 52.003c0 2.968-.636 4.56-2.336 7.111C24.363 61.067 24 61.975 24 64.007c0 2.031.363 2.938 1.664 4.888.735 1.103 1.272 2.026 1.644 2.96l-6.396-3.189c-.646-1.397-.912-2.741-.912-4.66 0-2.968.636-4.56 2.336-7.11C23.637 54.943 24 54.035 24 52.003c0-2.032-.364-2.94-1.664-4.89C20.637 44.564 20 42.972 20 40.003c0-2.968.636-4.56 2.336-7.11C23.637 30.942 24 30.034 24 28.003c0-2.032-.364-2.94-1.664-4.89C20.637 20.564 20 18.972 20 16.003c0-1.908.263-3.247.902-4.637ZM12.001 15.803c1.011-.5 2.529-1.256 4.297-2.138-.218.681-.298 1.386-.298 2.338 0 2.032.364 2.94 1.664 4.89C19.363 23.442 20 25.034 20 28.003c0 2.968-.636 4.56-2.336 7.11C16.363 37.064 16 37.972 16 40.003c0 2.032.364 2.94 1.664 4.89C19.363 47.442 20 49.034 20 52.003c0 2.968-.636 4.56-2.336 7.111C16.363 61.067 16 61.975 16 64.007c0 .963.082 1.673.306 2.362l-4.305-2.147-.001-.216c0-2.968.636-4.56 2.336-7.11C15.637 54.943 16 54.035 16 52.003c0-2.032-.364-2.94-1.664-4.89C12.637 44.564 12 42.972 12 40.003c0-2.968.636-4.56 2.336-7.11C15.637 30.942 16 30.034 16 28.003c0-2.032-.364-2.94-1.664-4.89C12.637 20.564 12 18.972 12 16.003l.001-.2ZM5.126 21.101c.695-1.294 1.711-2.304 3.049-3.21.217.95.665 1.766 1.489 3.002C11.363 23.442 12 25.034 12 28.003c0 2.968-.636 4.56-2.336 7.11C8.363 37.064 8 37.972 8 40.003c0 2.032.364 2.94 1.664 4.89C11.363 47.442 12 49.034 12 52.003c0 2.968-.636 4.56-2.336 7.111-.826 1.24-1.274 2.058-1.49 3.01-1.338-.908-2.353-1.92-3.048-3.216a20.72 20.72 0 0 1 1.21-2.012C7.637 54.943 8 54.035 8 52.003c0-2.032-.364-2.94-1.664-4.89C4.637 44.564 4 42.972 4 40.003c0-2.968.636-4.56 2.336-7.11C7.637 30.942 8 30.034 8 28.003c0-2.032-.364-2.94-1.664-4.89a20.729 20.729 0 0 1-1.21-2.012ZM44 75.911c-.108.032-.215.063-.323.092H40c0-2.031-.363-2.938-1.664-4.888C36.637 68.568 36 66.976 36 64.006c0-2.968.636-4.56 2.336-7.11C39.637 54.943 40 54.035 40 52.003c0-2.032-.364-2.94-1.664-4.89C36.637 44.564 36 42.972 36 40.003c0-2.968.636-4.56 2.336-7.11C39.637 30.942 40 30.034 40 28.003c0-2.032-.364-2.94-1.664-4.89C36.637 20.564 36 18.972 36 16.003c0-2.968.636-4.56 2.336-7.111C39.636 6.939 40 6.032 40 4h3.667c.11.03.222.062.333.094-.014 2.908-.654 4.493-2.336 7.016C40.363 13.063 40 13.971 40 16.003c0 2.032.364 2.94 1.664 4.89C43.363 23.442 44 25.034 44 28.003c0 2.968-.636 4.56-2.336 7.11C40.363 37.064 40 37.972 40 40.003c0 2.032.364 2.94 1.664 4.89C43.363 47.442 44 49.034 44 52.003c0 2.968-.636 4.56-2.336 7.111C40.363 61.067 40 61.975 40 64.007c0 2.031.363 2.938 1.664 4.888 1.681 2.522 2.323 4.106 2.336 7.016ZM51.518 72.44l-3.66 1.826c-.204-1.015-.655-1.851-1.522-3.151C44.637 68.568 44 66.976 44 64.006c0-2.968.636-4.56 2.336-7.11C47.637 54.943 48 54.035 48 52.003c0-2.032-.364-2.94-1.664-4.89C44.637 44.564 44 42.972 44 40.003c0-2.968.636-4.56 2.336-7.11C47.637 30.942 48 30.034 48 28.003c0-2.032-.364-2.94-1.664-4.89C44.637 20.564 44 18.972 44 16.003c0-2.968.636-4.56 2.336-7.111.866-1.3 1.317-2.137 1.52-3.152l3.661 1.827c-.368 1.142-.966 2.212-1.853 3.543C48.363 13.063 48 13.971 48 16.003c0 2.032.364 2.94 1.664 4.89C51.363 23.442 52 25.034 52 28.003c0 2.968-.636 4.56-2.336 7.11C48.363 37.064 48 37.972 48 40.003c0 2.032.364 2.94 1.664 4.89C51.363 47.442 52 49.034 52 52.003c0 2.968-.636 4.56-2.336 7.111C48.363 61.067 48 61.975 48 64.007c0 2.031.363 2.938 1.664 4.888.888 1.332 1.486 2.402 1.854 3.544ZM57.9 69.254l-3.605 1.8C52.627 68.541 52 66.951 52 64.005c0-2.968.636-4.56 2.336-7.11C55.637 54.943 56 54.035 56 52.003c0-2.032-.364-2.94-1.664-4.89C52.637 44.564 52 42.972 52 40.003c0-2.968.636-4.56 2.336-7.11C55.637 30.942 56 30.034 56 28.003c0-2.032-.364-2.94-1.664-4.89C52.637 20.564 52 18.972 52 16.003c0-2.944.626-4.534 2.295-7.05l3.604 1.8c-.076.117-.154.236-.235.357C56.363 13.063 56 13.971 56 16.003c0 2.032.364 2.94 1.664 4.89C59.363 23.442 60 25.034 60 28.003c0 2.968-.636 4.56-2.336 7.11C56.363 37.064 56 37.972 56 40.003c0 2.032.364 2.94 1.664 4.89C59.363 47.442 60 49.034 60 52.003c0 2.968-.636 4.56-2.336 7.111C56.363 61.067 56 61.975 56 64.007c0 2.031.363 2.938 1.664 4.888.081.122.16.241.236.359Z" fill="#CF1BF4" class="purple"/>
<path d="m64.225 66.096-3.628 1.811c-.419-1.145-.597-2.33-.597-3.901 0-2.968.636-4.56 2.336-7.11C63.637 54.943 64 54.035 64 52.003c0-2.032-.364-2.94-1.664-4.89C60.637 44.564 60 42.972 60 40.003c0-2.968.636-4.56 2.336-7.11C63.637 30.942 64 30.034 64 28.003c0-2.032-.364-2.94-1.664-4.89C60.637 20.564 60 18.972 60 16.003c0-1.571.178-2.757.598-3.903l3.628 1.81c-.164.608-.226 1.255-.226 2.093 0 2.032.364 2.94 1.664 4.89C67.363 23.442 68 25.034 68 28.003c0 2.968-.636 4.56-2.336 7.11C64.363 37.064 64 37.972 64 40.003c0 2.032.364 2.94 1.664 4.89C67.363 47.442 68 49.034 68 52.003c0 2.968-.636 4.56-2.336 7.111C64.363 61.067 64 61.975 64 64.007c0 .837.062 1.482.225 2.089ZM72.254 61.812c-.855.63-1.857 1.202-3.005 1.775l-1.248.624-.001-.205c0-2.968.636-4.56 2.336-7.11C71.637 54.943 72 54.035 72 52.003c0-2.032-.364-2.94-1.664-4.89C68.637 44.564 68 42.972 68 40.003c0-2.968.636-4.56 2.336-7.11C71.637 30.942 72 30.034 72 28.003c0-2.032-.364-2.94-1.664-4.89C68.637 20.564 68 18.972 68 16.003l.001-.208 1.248.623c1.146.568 2.145 1.134 2.999 1.756.239.835.675 1.608 1.416 2.72 1.699 2.548 2.336 4.14 2.336 7.11 0 2.967-.636 4.559-2.336 7.109C72.363 37.064 72 37.972 72 40.003c0 2.032.364 2.94 1.664 4.89C75.363 47.442 76 49.034 76 52.003c0 2.968-.636 4.56-2.336 7.111-.734 1.102-1.17 1.872-1.41 2.698Z" fill="#CF1BF4" class="purple"/>
<path fill-rule="evenodd" clip-rule="evenodd" d="M40 50.003c-10 0-14-10-14-10s4-10 14-10 14 10 14 10-4 10-14 10Zm0-3a7 7 0 1 0 0-14 7 7 0 0 0 0 14Zm0-3a4 4 0 1 1 0-8 4 4 0 0 1 0 8Z" fill="#fff"/></svg>