<svg width="39px" height="40px" viewBox="0 0 39 40" version="1.1" xmlns="http://www.w3.org/2000/svg" xmlns:xlink="http://www.w3.org/1999/xlink">
  <g id="Page-1" stroke="none" stroke-width="1" fill="none" fill-rule="evenodd">
    <g id="Desktop-HD-Copy" transform="translate(-161.000000, -1019.000000)" fill-rule="nonzero">
      <g id="download" transform="translate(161.000000, 1019.000000)">
        <circle id="Oval" fill="#B22222" cx="19.5" cy="20" r="19.5"></circle>
        <g id="Logo" transform="translate(11.000000, 5.500000)">
          <path d="M0.678100635,13.105508 L8.67617145,-3.55271368e-15 L16.6742423,13.105508 C17.0935151,13.7925215 16.8541909,14.6762712 16.1396968,15.0794182 C15.9095032,15.2093028 15.6474365,15.2777778 15.3805363,15.2777778 L1.97180664,15.2777778 C1.14337951,15.2777778 0.471806641,14.6320346 0.471806641,13.8354701 C0.471806641,13.5788353 0.543020555,13.326848 0.678100635,13.105508 Z" id="Path" stroke="#000000" fill="#000000"></path>
          <path d="M0.678100635,17.8277302 L8.67617145,4.72222222 L16.6742423,17.8277302 C17.0935151,18.5147438 16.8541909,19.3984935 16.1396968,19.8016404 C15.9095032,19.9315251 15.6474365,20 15.3805363,20 L1.97180664,20 C1.14337951,20 0.471806641,19.3542568 0.471806641,18.5576923 C0.471806641,18.3010575 0.543020555,18.0490702 0.678100635,17.8277302 Z" id="Path" stroke="#737373" fill="#737373"></path>
          <path d="M0.678100635,22.8277302 L8.67617145,9.72222221 L16.6742423,22.8277302 C17.0935151,23.5147438 16.8541909,24.3984935 16.1396968,24.8016404 C15.9095032,24.9315251 15.6474365,25 15.3805363,25 L1.97180664,25 C1.14337951,25 0.471806641,24.3542568 0.471806641,23.5576923 C0.471806641,23.3010575 0.543020555,23.0490702 0.678100635,22.8277302 Z" id="Path" stroke="#D8D8D8" fill="#D8D8D8"></path>
        </g>
      </g>
    </g>
  </g>
</svg>